<svg width="2018" height="1324" viewBox="0 0 2018 1324" fill="none" xmlns="http://www.w3.org/2000/svg">
<rect width="2018" height="1324" fill="black"/>
<path d="M697.364 1216.64H705.409V1272.82C705.409 1276.05 704.852 1278.84 703.739 1281.2C702.648 1283.57 700.989 1285.4 698.761 1286.69C696.557 1287.99 693.773 1288.64 690.409 1288.64C690.136 1288.64 689.864 1288.64 689.591 1288.64C689.318 1288.64 689.045 1288.64 688.773 1288.64V1281.14C689.045 1281.14 689.295 1281.14 689.523 1281.14C689.75 1281.14 690 1281.14 690.273 1281.14C692.727 1281.14 694.523 1280.41 695.659 1278.95C696.795 1277.52 697.364 1275.48 697.364 1272.82V1216.64ZM701.318 1207.91C699.75 1207.91 698.398 1207.38 697.261 1206.31C696.148 1205.24 695.591 1203.95 695.591 1202.45C695.591 1200.95 696.148 1199.67 697.261 1198.6C698.398 1197.53 699.75 1197 701.318 1197C702.886 1197 704.227 1197.53 705.341 1198.6C706.477 1199.67 707.045 1200.95 707.045 1202.45C707.045 1203.95 706.477 1205.24 705.341 1206.31C704.227 1207.38 702.886 1207.91 701.318 1207.91ZM741.418 1270.09C736.69 1270.09 732.543 1268.97 728.974 1266.72C725.429 1264.47 722.656 1261.32 720.656 1257.27C718.679 1253.23 717.69 1248.5 717.69 1243.09C717.69 1237.64 718.679 1232.87 720.656 1228.81C722.656 1224.74 725.429 1221.58 728.974 1219.33C732.543 1217.08 736.69 1215.95 741.418 1215.95C746.145 1215.95 750.281 1217.08 753.827 1219.33C757.395 1221.58 760.168 1224.74 762.145 1228.81C764.145 1232.87 765.145 1237.64 765.145 1243.09C765.145 1248.5 764.145 1253.23 762.145 1257.27C760.168 1261.32 757.395 1264.47 753.827 1266.72C750.281 1268.97 746.145 1270.09 741.418 1270.09ZM741.418 1262.86C745.009 1262.86 747.963 1261.94 750.281 1260.1C752.599 1258.26 754.315 1255.84 755.429 1252.84C756.543 1249.84 757.099 1246.59 757.099 1243.09C757.099 1239.59 756.543 1236.33 755.429 1233.31C754.315 1230.28 752.599 1227.84 750.281 1225.98C747.963 1224.11 745.009 1223.18 741.418 1223.18C737.827 1223.18 734.872 1224.11 732.554 1225.98C730.236 1227.84 728.52 1230.28 727.406 1233.31C726.293 1236.33 725.736 1239.59 725.736 1243.09C725.736 1246.59 726.293 1249.84 727.406 1252.84C728.52 1255.84 730.236 1258.26 732.554 1260.1C734.872 1261.94 737.827 1262.86 741.418 1262.86ZM810.426 1247.59V1216.64H818.472V1269H810.426V1260.14H809.881C808.653 1262.8 806.744 1265.06 804.153 1266.92C801.563 1268.76 798.29 1269.68 794.335 1269.68C791.062 1269.68 788.153 1268.97 785.608 1267.53C783.063 1266.08 781.063 1263.9 779.608 1260.99C778.153 1258.06 777.426 1254.36 777.426 1249.91V1216.64H785.472V1249.36C785.472 1253.18 786.54 1256.23 788.676 1258.5C790.835 1260.77 793.585 1261.91 796.926 1261.91C798.926 1261.91 800.96 1261.4 803.028 1260.38C805.119 1259.35 806.869 1257.78 808.278 1255.67C809.71 1253.56 810.426 1250.86 810.426 1247.59ZM855.162 1270.09C850.116 1270.09 845.764 1268.98 842.105 1266.75C838.469 1264.5 835.662 1261.36 833.685 1257.34C831.73 1253.3 830.753 1248.59 830.753 1243.23C830.753 1237.86 831.73 1233.14 833.685 1229.05C835.662 1224.93 838.412 1221.73 841.935 1219.43C845.48 1217.11 849.616 1215.95 854.344 1215.95C857.071 1215.95 859.764 1216.41 862.423 1217.32C865.082 1218.23 867.503 1219.7 869.685 1221.75C871.866 1223.77 873.605 1226.45 874.901 1229.8C876.196 1233.14 876.844 1237.25 876.844 1242.14V1245.55H836.48V1238.59H868.662C868.662 1235.64 868.071 1233 866.889 1230.68C865.73 1228.36 864.071 1226.53 861.912 1225.19C859.776 1223.85 857.253 1223.18 854.344 1223.18C851.139 1223.18 848.366 1223.98 846.026 1225.57C843.707 1227.14 841.923 1229.18 840.673 1231.7C839.423 1234.23 838.798 1236.93 838.798 1239.82V1244.45C838.798 1248.41 839.48 1251.76 840.844 1254.51C842.23 1257.24 844.151 1259.32 846.605 1260.75C849.06 1262.16 851.912 1262.86 855.162 1262.86C857.276 1262.86 859.185 1262.57 860.889 1261.98C862.616 1261.36 864.105 1260.45 865.355 1259.25C866.605 1258.02 867.571 1256.5 868.253 1254.68L876.026 1256.86C875.207 1259.5 873.832 1261.82 871.901 1263.82C869.969 1265.8 867.582 1267.34 864.741 1268.45C861.901 1269.55 858.707 1270.09 855.162 1270.09ZM922.082 1247.59V1216.64H930.128V1269H922.082V1260.14H921.537C920.31 1262.8 918.401 1265.06 915.81 1266.92C913.219 1268.76 909.946 1269.68 905.991 1269.68C902.719 1269.68 899.81 1268.97 897.264 1267.53C894.719 1266.08 892.719 1263.9 891.264 1260.99C889.81 1258.06 889.082 1254.36 889.082 1249.91V1216.64H897.128V1249.36C897.128 1253.18 898.196 1256.23 900.332 1258.5C902.491 1260.77 905.241 1261.91 908.582 1261.91C910.582 1261.91 912.616 1261.4 914.685 1260.38C916.776 1259.35 918.526 1257.78 919.935 1255.67C921.366 1253.56 922.082 1250.86 922.082 1247.59ZM944.864 1269V1216.64H952.636V1224.55H953.182C954.136 1221.95 955.864 1219.85 958.364 1218.24C960.864 1216.62 963.682 1215.82 966.818 1215.82C967.409 1215.82 968.148 1215.83 969.034 1215.85C969.92 1215.87 970.591 1215.91 971.045 1215.95V1224.14C970.773 1224.07 970.148 1223.97 969.17 1223.83C968.216 1223.67 967.205 1223.59 966.136 1223.59C963.591 1223.59 961.318 1224.12 959.318 1225.19C957.341 1226.24 955.773 1227.69 954.614 1229.56C953.477 1231.4 952.909 1233.5 952.909 1235.86V1269H944.864ZM1007.58 1269V1216.64H1015.36V1224.55H1015.9C1016.86 1221.95 1018.58 1219.85 1021.08 1218.24C1023.58 1216.62 1026.4 1215.82 1029.54 1215.82C1030.13 1215.82 1030.87 1215.83 1031.75 1215.85C1032.64 1215.87 1033.31 1215.91 1033.76 1215.95V1224.14C1033.49 1224.07 1032.87 1223.97 1031.89 1223.83C1030.93 1223.67 1029.92 1223.59 1028.86 1223.59C1026.31 1223.59 1024.04 1224.12 1022.04 1225.19C1020.06 1226.24 1018.49 1227.69 1017.33 1229.56C1016.2 1231.4 1015.63 1233.5 1015.63 1235.86V1269H1007.58ZM1062.98 1270.09C1058.25 1270.09 1054.11 1268.97 1050.54 1266.72C1046.99 1264.47 1044.22 1261.32 1042.22 1257.27C1040.24 1253.23 1039.25 1248.5 1039.25 1243.09C1039.25 1237.64 1040.24 1232.87 1042.22 1228.81C1044.22 1224.74 1046.99 1221.58 1050.54 1219.33C1054.11 1217.08 1058.25 1215.95 1062.98 1215.95C1067.71 1215.95 1071.84 1217.08 1075.39 1219.33C1078.96 1221.58 1081.73 1224.74 1083.71 1228.81C1085.71 1232.87 1086.71 1237.64 1086.71 1243.09C1086.71 1248.5 1085.71 1253.23 1083.71 1257.27C1081.73 1261.32 1078.96 1264.47 1075.39 1266.72C1071.84 1268.97 1067.71 1270.09 1062.98 1270.09ZM1062.98 1262.86C1066.57 1262.86 1069.53 1261.94 1071.84 1260.1C1074.16 1258.26 1075.88 1255.84 1076.99 1252.84C1078.11 1249.84 1078.66 1246.59 1078.66 1243.09C1078.66 1239.59 1078.11 1236.33 1076.99 1233.31C1075.88 1230.28 1074.16 1227.84 1071.84 1225.98C1069.53 1224.11 1066.57 1223.18 1062.98 1223.18C1059.39 1223.18 1056.43 1224.11 1054.12 1225.98C1051.8 1227.84 1050.08 1230.28 1048.97 1233.31C1047.86 1236.33 1047.3 1239.59 1047.3 1243.09C1047.3 1246.59 1047.86 1249.84 1048.97 1252.84C1050.08 1255.84 1051.8 1258.26 1054.12 1260.1C1056.43 1261.94 1059.39 1262.86 1062.98 1262.86ZM1131.99 1247.59V1216.64H1140.03V1269H1131.99V1260.14H1131.44C1130.22 1262.8 1128.31 1265.06 1125.72 1266.92C1123.13 1268.76 1119.85 1269.68 1115.9 1269.68C1112.62 1269.68 1109.72 1268.97 1107.17 1267.53C1104.63 1266.08 1102.63 1263.9 1101.17 1260.99C1099.72 1258.06 1098.99 1254.36 1098.99 1249.91V1216.64H1107.03V1249.36C1107.03 1253.18 1108.1 1256.23 1110.24 1258.5C1112.4 1260.77 1115.15 1261.91 1118.49 1261.91C1120.49 1261.91 1122.52 1261.4 1124.59 1260.38C1126.68 1259.35 1128.43 1257.78 1129.84 1255.67C1131.27 1253.56 1131.99 1250.86 1131.99 1247.59ZM1175.91 1289.73C1172.02 1289.73 1168.68 1289.23 1165.88 1288.23C1163.09 1287.25 1160.76 1285.95 1158.89 1284.34C1157.05 1282.75 1155.59 1281.05 1154.5 1279.23L1160.91 1274.73C1161.63 1275.68 1162.55 1276.77 1163.67 1278C1164.78 1279.25 1166.3 1280.33 1168.24 1281.24C1170.19 1282.17 1172.75 1282.64 1175.91 1282.64C1180.13 1282.64 1183.62 1281.61 1186.37 1279.57C1189.12 1277.52 1190.5 1274.32 1190.5 1269.95V1259.32H1189.82C1189.22 1260.27 1188.38 1261.45 1187.29 1262.86C1186.22 1264.25 1184.68 1265.49 1182.66 1266.58C1180.66 1267.65 1177.95 1268.18 1174.54 1268.18C1170.32 1268.18 1166.52 1267.18 1163.16 1265.18C1159.82 1263.18 1157.17 1260.27 1155.21 1256.45C1153.28 1252.64 1152.32 1248 1152.32 1242.55C1152.32 1237.18 1153.26 1232.51 1155.14 1228.53C1157.03 1224.53 1159.66 1221.44 1163.02 1219.26C1166.38 1217.06 1170.27 1215.95 1174.68 1215.95C1178.09 1215.95 1180.79 1216.52 1182.79 1217.66C1184.82 1218.77 1186.36 1220.05 1187.43 1221.48C1188.52 1222.89 1189.36 1224.05 1189.95 1224.95H1190.77V1216.64H1198.54V1270.5C1198.54 1275 1197.52 1278.66 1195.47 1281.48C1193.45 1284.32 1190.72 1286.4 1187.29 1287.72C1183.88 1289.06 1180.09 1289.73 1175.91 1289.73ZM1175.63 1260.95C1178.86 1260.95 1181.59 1260.22 1183.82 1258.74C1186.04 1257.26 1187.74 1255.14 1188.89 1252.36C1190.05 1249.59 1190.63 1246.27 1190.63 1242.41C1190.63 1238.64 1190.07 1235.31 1188.93 1232.42C1187.79 1229.53 1186.11 1227.27 1183.88 1225.64C1181.66 1224 1178.91 1223.18 1175.63 1223.18C1172.22 1223.18 1169.38 1224.05 1167.11 1225.77C1164.86 1227.5 1163.17 1229.82 1162.03 1232.73C1160.92 1235.64 1160.36 1238.86 1160.36 1242.41C1160.36 1246.05 1160.93 1249.26 1162.07 1252.06C1163.22 1254.83 1164.93 1257.01 1167.18 1258.6C1169.45 1260.17 1172.27 1260.95 1175.63 1260.95ZM1235.22 1270.09C1230.18 1270.09 1225.83 1268.98 1222.17 1266.75C1218.53 1264.5 1215.72 1261.36 1213.75 1257.34C1211.79 1253.3 1210.82 1248.59 1210.82 1243.23C1210.82 1237.86 1211.79 1233.14 1213.75 1229.05C1215.72 1224.93 1218.47 1221.73 1222 1219.43C1225.54 1217.11 1229.68 1215.95 1234.41 1215.95C1237.13 1215.95 1239.83 1216.41 1242.49 1217.32C1245.14 1218.23 1247.57 1219.7 1249.75 1221.75C1251.93 1223.77 1253.67 1226.45 1254.96 1229.8C1256.26 1233.14 1256.91 1237.25 1256.91 1242.14V1245.55H1216.54V1238.59H1248.72C1248.72 1235.64 1248.13 1233 1246.95 1230.68C1245.79 1228.36 1244.13 1226.53 1241.97 1225.19C1239.84 1223.85 1237.32 1223.18 1234.41 1223.18C1231.2 1223.18 1228.43 1223.98 1226.09 1225.57C1223.77 1227.14 1221.99 1229.18 1220.74 1231.7C1219.49 1234.23 1218.86 1236.93 1218.86 1239.82V1244.45C1218.86 1248.41 1219.54 1251.76 1220.91 1254.51C1222.29 1257.24 1224.21 1259.32 1226.67 1260.75C1229.12 1262.16 1231.97 1262.86 1235.22 1262.86C1237.34 1262.86 1239.25 1262.57 1240.95 1261.98C1242.68 1261.36 1244.17 1260.45 1245.42 1259.25C1246.67 1258.02 1247.63 1256.5 1248.32 1254.68L1256.09 1256.86C1255.27 1259.5 1253.89 1261.82 1251.96 1263.82C1250.03 1265.8 1247.64 1267.34 1244.8 1268.45C1241.96 1269.55 1238.77 1270.09 1235.22 1270.09Z" fill="white"/>
<path d="M745.364 40.6364H753.409V96.8182C753.409 100.045 752.852 102.841 751.739 105.205C750.648 107.568 748.989 109.398 746.761 110.693C744.557 111.989 741.773 112.636 738.409 112.636C738.136 112.636 737.864 112.636 737.591 112.636C737.318 112.636 737.045 112.636 736.773 112.636V105.136C737.045 105.136 737.295 105.136 737.523 105.136C737.75 105.136 738 105.136 738.273 105.136C740.727 105.136 742.523 104.409 743.659 102.955C744.795 101.523 745.364 99.4773 745.364 96.8182V40.6364ZM749.318 31.9091C747.75 31.9091 746.398 31.375 745.261 30.3068C744.148 29.2386 743.591 27.9545 743.591 26.4545C743.591 24.9545 744.148 23.6705 745.261 22.6023C746.398 21.5341 747.75 21 749.318 21C750.886 21 752.227 21.5341 753.341 22.6023C754.477 23.6705 755.045 24.9545 755.045 26.4545C755.045 27.9545 754.477 29.2386 753.341 30.3068C752.227 31.375 750.886 31.9091 749.318 31.9091ZM789.418 94.0909C784.69 94.0909 780.543 92.9659 776.974 90.7159C773.429 88.4659 770.656 85.3182 768.656 81.2727C766.679 77.2273 765.69 72.5 765.69 67.0909C765.69 61.6364 766.679 56.875 768.656 52.8068C770.656 48.7386 773.429 45.5795 776.974 43.3295C780.543 41.0795 784.69 39.9545 789.418 39.9545C794.145 39.9545 798.281 41.0795 801.827 43.3295C805.395 45.5795 808.168 48.7386 810.145 52.8068C812.145 56.875 813.145 61.6364 813.145 67.0909C813.145 72.5 812.145 77.2273 810.145 81.2727C808.168 85.3182 805.395 88.4659 801.827 90.7159C798.281 92.9659 794.145 94.0909 789.418 94.0909ZM789.418 86.8636C793.009 86.8636 795.963 85.9432 798.281 84.1023C800.599 82.2614 802.315 79.8409 803.429 76.8409C804.543 73.8409 805.099 70.5909 805.099 67.0909C805.099 63.5909 804.543 60.3295 803.429 57.3068C802.315 54.2841 800.599 51.8409 798.281 49.9773C795.963 48.1136 793.009 47.1818 789.418 47.1818C785.827 47.1818 782.872 48.1136 780.554 49.9773C778.236 51.8409 776.52 54.2841 775.406 57.3068C774.293 60.3295 773.736 63.5909 773.736 67.0909C773.736 70.5909 774.293 73.8409 775.406 76.8409C776.52 79.8409 778.236 82.2614 780.554 84.1023C782.872 85.9432 785.827 86.8636 789.418 86.8636ZM858.426 71.5909V40.6364H866.472V93H858.426V84.1364H857.881C856.653 86.7955 854.744 89.0568 852.153 90.9205C849.563 92.7614 846.29 93.6818 842.335 93.6818C839.062 93.6818 836.153 92.9659 833.608 91.5341C831.063 90.0795 829.063 87.8977 827.608 84.9886C826.153 82.0568 825.426 78.3636 825.426 73.9091V40.6364H833.472V73.3636C833.472 77.1818 834.54 80.2273 836.676 82.5C838.835 84.7727 841.585 85.9091 844.926 85.9091C846.926 85.9091 848.96 85.3977 851.028 84.375C853.119 83.3523 854.869 81.7841 856.278 79.6705C857.71 77.5568 858.426 74.8636 858.426 71.5909ZM903.162 94.0909C898.116 94.0909 893.764 92.9773 890.105 90.75C886.469 88.5 883.662 85.3636 881.685 81.3409C879.73 77.2955 878.753 72.5909 878.753 67.2273C878.753 61.8636 879.73 57.1364 881.685 53.0455C883.662 48.9318 886.412 45.7273 889.935 43.4318C893.48 41.1136 897.616 39.9545 902.344 39.9545C905.071 39.9545 907.764 40.4091 910.423 41.3182C913.082 42.2273 915.503 43.7045 917.685 45.75C919.866 47.7727 921.605 50.4545 922.901 53.7955C924.196 57.1364 924.844 61.25 924.844 66.1364V69.5455H884.48V62.5909H916.662C916.662 59.6364 916.071 57 914.889 54.6818C913.73 52.3636 912.071 50.5341 909.912 49.1932C907.776 47.8523 905.253 47.1818 902.344 47.1818C899.139 47.1818 896.366 47.9773 894.026 49.5682C891.707 51.1364 889.923 53.1818 888.673 55.7045C887.423 58.2273 886.798 60.9318 886.798 63.8182V68.4545C886.798 72.4091 887.48 75.7614 888.844 78.5114C890.23 81.2386 892.151 83.3182 894.605 84.75C897.06 86.1591 899.912 86.8636 903.162 86.8636C905.276 86.8636 907.185 86.5682 908.889 85.9773C910.616 85.3636 912.105 84.4545 913.355 83.25C914.605 82.0227 915.571 80.5 916.253 78.6818L924.026 80.8636C923.207 83.5 921.832 85.8182 919.901 87.8182C917.969 89.7955 915.582 91.3409 912.741 92.4545C909.901 93.5455 906.707 94.0909 903.162 94.0909ZM970.082 71.5909V40.6364H978.128V93H970.082V84.1364H969.537C968.31 86.7955 966.401 89.0568 963.81 90.9205C961.219 92.7614 957.946 93.6818 953.991 93.6818C950.719 93.6818 947.81 92.9659 945.264 91.5341C942.719 90.0795 940.719 87.8977 939.264 84.9886C937.81 82.0568 937.082 78.3636 937.082 73.9091V40.6364H945.128V73.3636C945.128 77.1818 946.196 80.2273 948.332 82.5C950.491 84.7727 953.241 85.9091 956.582 85.9091C958.582 85.9091 960.616 85.3977 962.685 84.375C964.776 83.3523 966.526 81.7841 967.935 79.6705C969.366 77.5568 970.082 74.8636 970.082 71.5909ZM992.864 93V40.6364H1000.64V48.5455H1001.18C1002.14 45.9545 1003.86 43.8523 1006.36 42.2386C1008.86 40.625 1011.68 39.8182 1014.82 39.8182C1015.41 39.8182 1016.15 39.8295 1017.03 39.8523C1017.92 39.875 1018.59 39.9091 1019.05 39.9545V48.1364C1018.77 48.0682 1018.15 47.9659 1017.17 47.8295C1016.22 47.6705 1015.2 47.5909 1014.14 47.5909C1011.59 47.5909 1009.32 48.125 1007.32 49.1932C1005.34 50.2386 1003.77 51.6932 1002.61 53.5568C1001.48 55.3977 1000.91 57.5 1000.91 59.8636V93H992.864ZM1098.4 40.6364L1079.04 93H1070.86L1051.49 40.6364H1060.22L1074.67 82.3636H1075.22L1089.67 40.6364H1098.4ZM1129.1 94.0909C1124.05 94.0909 1119.7 92.9773 1116.04 90.75C1112.41 88.5 1109.6 85.3636 1107.62 81.3409C1105.67 77.2955 1104.69 72.5909 1104.69 67.2273C1104.69 61.8636 1105.67 57.1364 1107.62 53.0455C1109.6 48.9318 1112.35 45.7273 1115.87 43.4318C1119.42 41.1136 1123.55 39.9545 1128.28 39.9545C1131.01 39.9545 1133.7 40.4091 1136.36 41.3182C1139.02 42.2273 1141.44 43.7045 1143.62 45.75C1145.8 47.7727 1147.54 50.4545 1148.84 53.7955C1150.13 57.1364 1150.78 61.25 1150.78 66.1364V69.5455H1110.42V62.5909H1142.6C1142.6 59.6364 1142.01 57 1140.83 54.6818C1139.67 52.3636 1138.01 50.5341 1135.85 49.1932C1133.71 47.8523 1131.19 47.1818 1128.28 47.1818C1125.08 47.1818 1122.3 47.9773 1119.96 49.5682C1117.64 51.1364 1115.86 53.1818 1114.61 55.7045C1113.36 58.2273 1112.74 60.9318 1112.74 63.8182V68.4545C1112.74 72.4091 1113.42 75.7614 1114.78 78.5114C1116.17 81.2386 1118.09 83.3182 1120.54 84.75C1123 86.1591 1125.85 86.8636 1129.1 86.8636C1131.21 86.8636 1133.12 86.5682 1134.83 85.9773C1136.55 85.3636 1138.04 84.4545 1139.29 83.25C1140.54 82.0227 1141.51 80.5 1142.19 78.6818L1149.96 80.8636C1149.14 83.5 1147.77 85.8182 1145.84 87.8182C1143.91 89.7955 1141.52 91.3409 1138.68 92.4545C1135.84 93.5455 1132.64 94.0909 1129.1 94.0909ZM1163.02 93V40.6364H1170.79V48.5455H1171.34C1172.29 45.9545 1174.02 43.8523 1176.52 42.2386C1179.02 40.625 1181.84 39.8182 1184.97 39.8182C1185.57 39.8182 1186.3 39.8295 1187.19 39.8523C1188.08 39.875 1188.75 39.9091 1189.2 39.9545V48.1364C1188.93 48.0682 1188.3 47.9659 1187.33 47.8295C1186.37 47.6705 1185.36 47.5909 1184.29 47.5909C1181.75 47.5909 1179.47 48.125 1177.47 49.1932C1175.5 50.2386 1173.93 51.6932 1172.77 53.5568C1171.63 55.3977 1171.07 57.5 1171.07 59.8636V93H1163.02ZM1224.79 40.6364V47.4545H1197.66V40.6364H1224.79ZM1205.57 28.0909H1213.61V78C1213.61 80.2727 1213.94 81.9773 1214.6 83.1136C1215.28 84.2273 1216.14 84.9773 1217.19 85.3636C1218.26 85.7273 1219.38 85.9091 1220.57 85.9091C1221.45 85.9091 1222.18 85.8636 1222.75 85.7727C1223.32 85.6591 1223.77 85.5682 1224.11 85.5L1225.75 92.7273C1225.2 92.9318 1224.44 93.1364 1223.46 93.3409C1222.49 93.5682 1221.25 93.6818 1219.75 93.6818C1217.47 93.6818 1215.25 93.1932 1213.07 92.2159C1210.91 91.2386 1209.11 89.75 1207.68 87.75C1206.27 85.75 1205.57 83.2273 1205.57 80.1818V28.0909Z" fill="white"/>
<path d="M285 191L1667.5 1129.5M285 191V660.25M285 191H976.25M1667.5 191L285 1129.5M1667.5 191V660.25M1667.5 191H976.25M1667.5 1129.5V660.25M1667.5 1129.5H976.25M285 1129.5V660.25M285 1129.5H976.25M1667.5 660.25H285M976.25 191V1129.5" stroke="white" stroke-width="12"/>
<circle cx="313" cy="210" r="66" fill="#0DFF00"/>
<circle cx="1356" cy="1242" r="66" fill="#FF0000"/>
<circle cx="313" cy="1104" r="66" fill="#FF0000"/>
<circle cx="1654" cy="210" r="66" fill="#0DFF00"/>
<circle cx="984" cy="660" r="66" fill="#0DFF00"/>
<circle cx="976" cy="210" r="66" fill="#FF0000"/>
</svg>
